<svg width="196" height="33" fill="none" xmlns="http://www.w3.org/2000/svg"><path fill="#fff" d="M0 31h196v2H0z"/><path fill="#fff" d="M0 31h196v2H0z"/><path fill="#fff" d="M0 31h196v2H0zM0 0h196v2H0z"/><path fill="#fff" d="M0 0h196v2H0z"/><path fill="#fff" d="M0 0h196v2H0zm8.472 20.68V25h-1.92v-4.32h-1.92V25h-1.92v-4.32h-1.68v-1.8h1.68v-4.8h-1.68v-1.8h1.68V8.2h1.92v4.08h1.92V8.2h1.92v4.08h1.68v1.8h-1.68v4.8h1.68v1.8h-1.68zm-1.92-6.6h-1.92v4.8h1.92v-4.8zM18.93 25L15.256 9.976V25h-1.944V8.2h3.408l3.696 15.024V8.2h1.944V25h-3.43zm7.508 0V8.2h7.872v1.752h-5.784v5.496h5.184V17.2h-5.184v6.048h5.784V25h-7.872zm16.288 0H39.87L36.582 8.2h2.112l2.64 14.688L44.19 8.2h2.064L42.726 25zm15.448 0V9.928l-2.568 9.432h-1.992l-2.568-9.432V25h-1.92V8.2h3.384l2.184 8.592 2.16-8.592h3.312V25h-1.992zm6.069 0V8.2h7.872v1.752h-5.784v5.496h5.184V17.2h-5.184v6.048h5.784V25h-7.872zm16.96 0L77.53 9.976V25h-1.944V8.2h3.408l3.696 15.024V8.2h1.944V25h-3.432zm16.725-4.08c0 1.36-.376 2.384-1.128 3.072C96.064 24.664 95 25 93.608 25h-.816c-1.392 0-2.464-.336-3.216-1.008-.736-.688-1.104-1.712-1.104-3.072v-8.64c0-1.36.368-2.376 1.104-3.048.752-.688 1.824-1.032 3.216-1.032h.816c1.392 0 2.456.344 3.192 1.032.752.672 1.128 1.688 1.128 3.048v8.64zm-2.088-9.096c0-.496-.184-.92-.552-1.272-.368-.352-.848-.528-1.44-.528h-1.296c-.592 0-1.072.176-1.44.528a1.697 1.697 0 00-.552 1.272v9.552c0 .496.184.92.552 1.272.368.352.848.528 1.44.528h1.296c.592 0 1.072-.176 1.44-.528.368-.352.552-.776.552-1.272v-9.552zm6.985 11.4h5.928V25h-8.064v-2.112l6.192-12.912h-5.64V8.2h7.752v2.112l-6.168 12.912zM119.326 25l-.912-4.248h-4.68L112.798 25h-2.136l4.056-16.8h2.76l3.984 16.8h-2.136zm-3.264-15.216l-1.944 9.168h3.912l-1.968-9.168zm15.216 11.136c0 1.36-.376 2.384-1.128 3.072-.736.672-1.8 1.008-3.192 1.008h-3.168v-1.824h3.408c.592 0 1.072-.176 1.44-.528.368-.352.552-.776.552-1.272V18.88c0-.48-.128-.864-.384-1.152-.24-.304-.608-.456-1.104-.456h-.48c-1.184 0-2.12-.344-2.808-1.032-.688-.704-1.032-1.72-1.032-3.048v-.912c0-1.36.368-2.376 1.104-3.048.752-.688 1.824-1.032 3.216-1.032h3.192v1.824h-3.432c-.592 0-1.072.176-1.44.528a1.697 1.697 0 00-.552 1.272v1.824c0 .496.16.912.48 1.248.32.32.736.48 1.248.48h.48c1.136 0 2.016.328 2.64.984.64.656.96 1.648.96 2.976v1.584zm2.411 4.08v-1.752h1.68V9.952h-1.68V8.2h5.448v1.752h-1.68v13.296h1.68V25h-5.448zm15.754-4.08c0 1.36-.376 2.384-1.128 3.072-.736.672-1.8 1.008-3.192 1.008h-3.168v-1.824h3.408c.592 0 1.072-.176 1.44-.528.368-.352.552-.776.552-1.272V18.88c0-.48-.128-.864-.384-1.152-.24-.304-.608-.456-1.104-.456h-.48c-1.184 0-2.12-.344-2.808-1.032-.688-.704-1.032-1.72-1.032-3.048v-.912c0-1.36.368-2.376 1.104-3.048.752-.688 1.824-1.032 3.216-1.032h3.192v1.824h-3.432c-.592 0-1.072.176-1.44.528a1.697 1.697 0 00-.552 1.272v1.824c0 .496.16.912.48 1.248.32.32.736.48 1.248.48h.48c1.136 0 2.016.328 2.64.984.64.656.96 1.648.96 2.976v1.584zm7.474-10.896V25h-2.088V10.024h-3.696V8.2h9.48v1.824h-3.696zM163.009 25V8.2h7.872v1.752h-5.784v5.496h5.184V17.2h-5.184v6.048h5.784V25h-7.872zm15.567-6.96h-2.136V25h-2.088V8.2h4.296c1.36 0 2.384.304 3.072.912.704.592 1.056 1.536 1.056 2.832v2.304c0 1.808-.72 2.936-2.16 3.384L183.952 25h-2.28l-3.096-6.96zm2.112-6.312c0-.608-.144-1.048-.432-1.32-.272-.272-.712-.408-1.32-.408h-2.496v6.24h2.496c.608 0 1.048-.136 1.32-.408.288-.288.432-.736.432-1.344v-2.76zm13.309 9.192c0 1.36-.376 2.384-1.128 3.072-.736.672-1.8 1.008-3.192 1.008h-3.168v-1.824h3.408c.592 0 1.072-.176 1.44-.528.368-.352.552-.776.552-1.272V18.88c0-.48-.128-.864-.384-1.152-.24-.304-.608-.456-1.104-.456h-.48c-1.184 0-2.12-.344-2.808-1.032-.688-.704-1.032-1.72-1.032-3.048v-.912c0-1.36.368-2.376 1.104-3.048.752-.688 1.824-1.032 3.216-1.032h3.192v1.824h-3.432c-.592 0-1.072.176-1.44.528a1.697 1.697 0 00-.552 1.272v1.824c0 .496.16.912.48 1.248.32.32.736.48 1.248.48h.48c1.136 0 2.016.328 2.64.984.64.656.96 1.648.96 2.976v1.584z"/></svg>