<?xml version="1.0" standalone="no"?>
<!DOCTYPE svg PUBLIC "-//W3C//DTD SVG 20010904//EN"
 "http://www.w3.org/TR/2001/REC-SVG-20010904/DTD/svg10.dtd">
<svg version="1.0" xmlns="http://www.w3.org/2000/svg"
 width="260.000000pt" height="260.000000pt" viewBox="0 0 260.000000 260.000000"
 preserveAspectRatio="xMidYMid meet">
<metadata>
Created by potrace 1.11, written by Peter Selinger 2001-2013
</metadata>
<g transform="translate(0.000000,260.000000) scale(0.100000,-0.100000)"
fill="#000000" stroke="none">
<path d="M0 1300 l0 -1300 1300 0 1300 0 0 1300 0 1300 -1300 0 -1300 0 0
-1300z m2400 945 l0 -55 -1100 0 -1100 0 0 55 0 55 1100 0 1100 0 0 -55z
m-232 -540 c97 -29 171 -107 187 -197 l7 -38 -55 0 -55 0 -6 35 c-9 47 -59
102 -104 115 -125 34 -242 -21 -242 -115 0 -80 34 -109 190 -160 198 -65 270
-134 270 -260 0 -201 -322 -288 -516 -140 -35 27 -84 115 -84 152 0 21 4 23
54 23 l54 0 7 -37 c14 -76 92 -123 205 -123 103 1 170 52 170 130 0 76 -41
108 -214 166 -181 61 -246 125 -246 240 0 49 5 69 29 105 63 100 212 144 349
104z m-1598 -4 c0 -5 -9 -53 -20 -106 -28 -136 -32 -126 52 -123 l73 3 12 60
c7 33 17 86 23 118 l11 57 40 0 c21 0 39 -4 39 -10 0 -5 -9 -56 -20 -112 -11
-57 -20 -106 -20 -110 0 -5 25 -8 55 -8 l55 0 0 -40 0 -40 -64 0 -65 0 -10
-52 c-6 -29 -15 -74 -20 -100 l-8 -48 63 0 64 0 0 -40 0 -39 -72 -3 -73 -3
-21 -110 -20 -110 -43 -3 c-39 -3 -41 -2 -37 20 16 74 36 182 36 194 0 11 -17
14 -73 14 l-72 0 -19 -102 c-10 -57 -21 -109 -23 -115 -5 -11 -83 -20 -83 -9
0 2 9 48 20 101 11 53 20 103 20 111 0 11 -16 14 -65 14 l-65 0 0 40 0 40 75
0 c41 0 75 2 75 4 0 5 27 139 35 173 5 21 2 22 -67 25 l-73 3 -3 37 -3 37 82
3 83 3 13 65 c7 36 18 89 24 118 l10 52 40 0 c21 0 39 -4 39 -9z m532 -8 c8
-10 102 -153 209 -318 l194 -299 3 317 2 317 55 0 55 0 0 -415 0 -416 -57 3
-57 3 -206 315 -205 314 -3 -317 -2 -317 -55 0 -55 0 0 415 0 415 53 0 c39 0
58 -5 69 -17z m1298 -1338 l0 -55 -1100 0 -1100 0 0 55 0 55 1100 0 1100 0 0
-55z"/>
<path d="M510 1386 c0 -5 -27 -139 -35 -173 -5 -22 -3 -23 70 -23 41 0 75 2
75 4 0 5 27 139 35 174 5 21 3 22 -70 22 -41 0 -75 -2 -75 -4z"/>
</g>
</svg>
